<svg width="199" height="199" viewBox="0 0 199 199" fill="none" xmlns="http://www.w3.org/2000/svg">
<path d="M137.554 65.5156C159.349 60.7643 155.07 106.414 154.044 118.148C153.5 124.372 146.713 127.17 143.402 127.17L101.172 127.17C94.466 127.17 91.8497 121.89 92.3648 116.741C93.8457 101.938 96.709 85.8716 106.215 78.6907C113.376 73.2811 127.303 67.7503 137.554 65.5156Z" fill="#C295DC"/>
<path d="M96.919 40.4089C96.5875 35.5013 100.128 32.1044 103.782 32.1028C105.972 32.1029 108.98 32.2807 113.585 33.8163C121.417 36.4274 132.466 44.8524 134.219 48.5533C135.072 50.3534 135.281 52.2158 134.673 54.0973C133.679 57.1722 130.937 59.217 127.941 60.4305C122.502 62.6342 113.268 65.7676 109.665 64.4956C102.564 61.9891 97.2064 44.6583 96.919 40.4089Z" fill="#1D1134"/>
<path d="M74.6169 126.653C77.1199 126.653 79.3583 125.133 80.137 122.82C85.6558 106.421 91.7528 77.7721 93.1164 67.4475C93.2566 57.7476 90.6151 50.4934 87.7137 42.1279C86.5869 38.8791 82.6968 34.9238 76.7579 37.5138C74.0277 38.7044 71.7908 41.2038 68.9889 43.5398C63.1458 48.4113 48.9544 68.3403 46.0058 79.0538C44.392 87.523 44.968 98.5461 46.0057 108.224C46.6194 113.948 46.9967 126.653 54.9971 126.653L74.6169 126.653Z" fill="#FF6D46"/>
<path d="M46.3945 148.671C48.0812 148.671 49.6101 149.055 50.9805 149.824C52.3507 150.572 53.426 151.64 54.2061 153.028C55.0072 154.417 55.4072 156.019 55.4072 157.835C55.4072 159.651 54.9961 161.253 54.1738 162.642C53.3728 164.03 52.277 165.109 50.8857 165.878C49.5155 166.626 47.9761 167 46.2686 167C44.5819 167 43.0632 166.626 41.7139 165.878C40.3648 165.109 39.3005 164.03 38.5205 162.642C37.7615 161.253 37.3818 159.651 37.3818 157.835C37.3819 156.019 37.7717 154.417 38.5518 153.028C39.3529 151.64 40.4392 150.572 41.8096 149.824C43.1798 149.055 44.7081 148.671 46.3945 148.671ZM65.8682 148.671C68.0396 148.671 69.8316 149.226 71.2441 150.337C72.6778 151.426 73.6372 152.964 74.1221 154.951H69.3467C69.0937 154.182 68.6612 153.584 68.0498 153.157C67.4596 152.709 66.7222 152.483 65.8369 152.483C64.572 152.483 63.5699 152.954 62.832 153.894C62.0942 154.812 61.7256 156.126 61.7256 157.835C61.7256 159.522 62.0943 160.836 62.832 161.776C63.5699 162.695 64.5719 163.154 65.8369 163.154C67.6287 163.154 68.7986 162.342 69.3467 160.719H74.1221C73.6372 162.641 72.6778 164.17 71.2441 165.302C69.8106 166.434 68.0185 167 65.8682 167C64.1816 167 62.685 166.626 61.3779 165.878C60.0708 165.109 59.0475 164.041 58.3096 162.674C57.5717 161.285 57.2031 159.672 57.2031 157.835C57.2032 155.998 57.5717 154.395 58.3096 153.028C59.0475 151.64 60.0708 150.572 61.3779 149.824C62.685 149.055 64.1817 148.671 65.8682 148.671ZM149.17 148.671C150.835 148.671 152.323 149.033 153.63 149.76C154.958 150.486 155.98 151.522 156.697 152.868C157.435 154.193 157.804 155.72 157.804 157.45C157.804 158.091 157.762 158.668 157.678 159.181H144.869C144.975 160.462 145.417 161.467 146.197 162.193C146.977 162.92 147.937 163.282 149.075 163.282C150.72 163.282 151.89 162.567 152.586 161.136H157.361C156.855 162.845 155.885 164.254 154.451 165.365C153.018 166.455 151.257 167 149.17 167C147.483 167 145.965 166.626 144.616 165.878C143.288 165.109 142.244 164.03 141.485 162.642C140.748 161.253 140.379 159.651 140.379 157.835C140.379 155.998 140.747 154.385 141.485 152.996C142.223 151.608 143.257 150.54 144.585 149.792C145.913 149.044 147.441 148.671 149.17 148.671ZM168.373 148.671C170.039 148.671 171.526 149.033 172.833 149.76C174.161 150.486 175.184 151.522 175.9 152.868C176.638 154.193 177.007 155.72 177.007 157.45C177.007 158.091 176.965 158.668 176.881 159.181H164.072C164.178 160.462 164.62 161.467 165.4 162.193C166.18 162.92 167.14 163.282 168.278 163.282C169.923 163.282 171.093 162.567 171.789 161.136H176.564C176.058 162.845 175.088 164.254 173.654 165.365C172.221 166.455 170.46 167 168.373 167C166.687 167 165.169 166.626 163.819 165.878C162.491 165.109 161.447 164.03 160.688 162.642C159.951 161.253 159.582 159.651 159.582 157.835C159.582 155.998 159.951 154.385 160.688 152.996C161.426 151.608 162.46 150.54 163.788 149.792C165.116 149.044 166.645 148.671 168.373 148.671ZM105.422 144.029C107.699 144.029 109.544 144.595 110.956 145.728C112.39 146.838 113.181 148.398 113.328 150.406H108.458C108.416 149.637 108.089 149.007 107.478 148.516C106.887 148.003 106.096 147.746 105.105 147.746C104.241 147.746 103.546 147.971 103.019 148.42C102.513 148.869 102.26 149.52 102.26 150.374C102.26 150.972 102.45 151.474 102.829 151.88C103.23 152.264 103.714 152.585 104.283 152.842C104.874 153.077 105.696 153.354 106.75 153.675C108.184 154.102 109.354 154.529 110.261 154.956C111.167 155.383 111.947 156.024 112.601 156.879C113.254 157.733 113.581 158.856 113.581 160.244C113.581 161.44 113.275 162.551 112.664 163.576C112.053 164.602 111.156 165.424 109.976 166.044C108.795 166.642 107.393 166.94 105.77 166.94C104.231 166.94 102.839 166.674 101.596 166.14C100.373 165.606 99.4024 164.837 98.6855 163.833C97.9687 162.829 97.6002 161.643 97.5791 160.275H102.322C102.386 161.194 102.702 161.921 103.271 162.455C103.862 162.989 104.663 163.256 105.675 163.256C106.708 163.256 107.52 163.01 108.11 162.519C108.7 162.006 108.995 161.344 108.995 160.532C108.995 159.87 108.795 159.325 108.395 158.897C107.994 158.47 107.488 158.139 106.877 157.904C106.287 157.648 105.464 157.37 104.41 157.071C102.977 156.644 101.806 156.227 100.899 155.821C100.014 155.394 99.2443 154.764 98.5908 153.931C97.9585 153.076 97.6426 151.944 97.6426 150.534C97.6426 149.21 97.9695 148.056 98.623 147.073C99.2766 146.091 100.194 145.343 101.374 144.83C102.555 144.296 103.904 144.029 105.422 144.029ZM122.259 148.963H126.181V152.647H122.259V161.235C122.259 161.833 122.396 162.271 122.67 162.549C122.965 162.805 123.45 162.934 124.125 162.934H126.181V166.715H123.397C119.666 166.715 117.8 164.877 117.8 161.203V152.647H115.713V148.963H117.8V144.572H122.259V148.963ZM185.078 148.963H189V152.647H185.078V161.235C185.078 161.833 185.215 162.271 185.489 162.549C185.784 162.805 186.27 162.934 186.944 162.934H189V166.715H186.217C182.485 166.715 180.619 164.877 180.619 161.203V152.647H178.532V148.963H180.619V144.572H185.078V148.963ZM19.1074 144.348C20.6042 144.348 21.8906 144.593 22.9658 145.084C24.062 145.575 24.8845 146.259 25.4326 147.135C26.0019 148.011 26.2861 149.004 26.2861 150.115C26.2861 151.418 25.9388 152.508 25.2432 153.384C24.5686 154.26 23.6618 154.879 22.5234 155.242C23.7672 155.477 24.7897 156.107 25.5908 157.133C26.3918 158.158 26.7919 159.333 26.792 160.657C26.792 161.854 26.4975 162.911 25.9072 163.83C25.338 164.727 24.5045 165.433 23.4082 165.945C22.312 166.458 21.0152 166.714 19.5186 166.714H10V144.348H19.1074ZM138.852 153.415H137.682C136.29 153.415 135.235 153.746 134.519 154.408C133.823 155.07 133.476 156.224 133.476 157.869V166.713H129.048V148.961H133.476V151.717C134.045 150.777 134.782 150.04 135.688 149.506C136.616 148.972 137.671 148.704 138.852 148.704V153.415ZM34.4326 166.712H30.0049V143H34.4326V166.712ZM81.4766 156.49L87.3584 148.96H93.1143L85.3975 157.868L93.1768 166.712H87.4219L81.4766 159.15V166.712H77.0488V143H81.4766V156.49ZM46.3311 152.58C45.0663 152.58 44.002 153.04 43.1377 153.958C42.2944 154.855 41.8721 156.147 41.8721 157.835C41.8721 159.522 42.2835 160.826 43.1055 161.744C43.9488 162.641 45.0036 163.091 46.2686 163.091C47.0696 163.091 47.818 162.898 48.5137 162.514C49.2304 162.108 49.8 161.509 50.2217 160.719C50.6432 159.928 50.8535 158.967 50.8535 157.835C50.8535 156.147 50.4108 154.855 49.5254 153.958C48.661 153.039 47.596 152.58 46.3311 152.58ZM14.4277 163.061H18.8867C19.9618 163.06 20.7945 162.805 21.3848 162.292C21.9961 161.779 22.3017 161.053 22.3018 160.113C22.3018 159.152 21.9857 158.404 21.3535 157.87C20.721 157.315 19.8662 157.037 18.791 157.037H14.4277V163.061ZM149.044 152.355C147.948 152.355 147.02 152.697 146.261 153.381C145.523 154.043 145.07 154.973 144.901 156.169H153.219C153.198 155.015 152.786 154.097 151.985 153.413C151.184 152.708 150.203 152.355 149.044 152.355ZM168.247 152.355C167.151 152.355 166.223 152.697 165.464 153.381C164.726 154.043 164.273 154.973 164.104 156.169H172.422C172.401 155.015 171.989 154.097 171.188 153.413C170.387 152.708 169.407 152.355 168.247 152.355ZM14.4277 153.576H18.4756C19.5295 153.576 20.341 153.341 20.9102 152.871C21.4794 152.38 21.7646 151.685 21.7646 150.788C21.7646 149.891 21.4794 149.196 20.9102 148.705C20.341 148.214 19.5295 147.968 18.4756 147.968H14.4277V153.576Z" fill="black"/>
</svg>
